HIERARCHY
ROOT Hips
{
  OFFSET 8.91173 92.5249 -21.9562
  CHANNELS 6 Xposition Yposition Zposition Zrotation Xrotation Yrotation
  JOINT Spine
  {
    OFFSET 0 14.0932 -1.51142
    CHANNELS 6 Xposition Yposition Zposition Zrotation Xrotation Yrotation
    JOINT Spine1
    {
      OFFSET 0 8.6966 0
      CHANNELS 6 Xposition Yposition Zposition Zrotation Xrotation Yrotation
      JOINT Spine2
      {
        OFFSET 0 8.6966 0
        CHANNELS 6 Xposition Yposition Zposition Zrotation Xrotation Yrotation
        JOINT Spine3
        {
          OFFSET 0 8.6966 0
          CHANNELS 6 Xposition Yposition Zposition Zrotation Xrotation Yrotation
          JOINT Neck
          {
            OFFSET 0 11.1813 1.11813
            CHANNELS 6 Xposition Yposition Zposition Zrotation Xrotation Yrotation
            JOINT Neck1
            {
              OFFSET 0 5.70631 0
              CHANNELS 6 Xposition Yposition Zposition Zrotation Xrotation Yrotation
              JOINT Head
              {
                OFFSET 0 5.70631 0
                CHANNELS 6 Xposition Yposition Zposition Zrotation Xrotation Yrotation
                End Site
                {
                  OFFSET 0 9.71257 0
                }
              }
            }
          }
          JOINT RightShoulder
          {
            OFFSET 0 7.98668 5.19711
            CHANNELS 6 Xposition Yposition Zposition Zrotation Xrotation Yrotation
            JOINT RightArm
            {
              OFFSET 0 18.3158 0
              CHANNELS 6 Xposition Yposition Zposition Zrotation Xrotation Yrotation
              JOINT RightForeArm
              {
                OFFSET 0 28.8742 0
                CHANNELS 6 Xposition Yposition Zposition Zrotation Xrotation Yrotation
                JOINT RightHand
                {
                  OFFSET 0 23.8772 0
                  CHANNELS 6 Xposition Yposition Zposition Zrotation Xrotation Yrotation
                  JOINT RightHandThumb1
                  {
                    OFFSET -2.41094 4.67063 3.47303
                    CHANNELS 6 Xposition Yposition Zposition Zrotation Xrotation Yrotation
                    JOINT RightHandThumb2
                    {
                      OFFSET 0 3.95207 0
                      CHANNELS 6 Xposition Yposition Zposition Zrotation Xrotation Yrotation
                      JOINT RightHandThumb3
                      {
                        OFFSET 0 2.15568 0
                        CHANNELS 6 Xposition Yposition Zposition Zrotation Xrotation Yrotation
                        End Site
                        {
                          OFFSET 0 1.91616 0
                        }
                      }
                    }
                  }
                  JOINT RightHandIndex1
                  {
                    OFFSET 0 12.455 2.51496
                    CHANNELS 6 Xposition Yposition Zposition Zrotation Xrotation Yrotation
                    JOINT RightHandIndex2
                    {
                      OFFSET 0 4.79039 0
                      CHANNELS 6 Xposition Yposition Zposition Zrotation Xrotation Yrotation
                      JOINT RightHandIndex3
                      {
                        OFFSET 0 2.63472 0
                        CHANNELS 6 Xposition Yposition Zposition Zrotation Xrotation Yrotation
                        End Site
                        {
                          OFFSET 0 1.91616 0
                        }
                      }
                    }
                  }
                  JOINT RightHandMiddle1
                  {
                    OFFSET 0 12.455 -0.0798399
                    CHANNELS 6 Xposition Yposition Zposition Zrotation Xrotation Yrotation
                    JOINT RightHandMiddle2
                    {
                      OFFSET 0 5.38919 0
                      CHANNELS 6 Xposition Yposition Zposition Zrotation Xrotation Yrotation
                      JOINT RightHandMiddle3
                      {
                        OFFSET 0 3.11376 0
                        CHANNELS 6 Xposition Yposition Zposition Zrotation Xrotation Yrotation
                        End Site
                        {
                          OFFSET 0 2.03592 0
                        }
                      }
                    }
                  }
                  JOINT RightHandRing1
                  {
                    OFFSET 0 11.0778 -2.67464
                    CHANNELS 6 Xposition Yposition Zposition Zrotation Xrotation Yrotation
                    JOINT RightHandRing2
                    {
                      OFFSET 0 4.91015 0
                      CHANNELS 6 Xposition Yposition Zposition Zrotation Xrotation Yrotation
                      JOINT RightHandRing3
                      {
                        OFFSET 0 3.11376 0
                        CHANNELS 6 Xposition Yposition Zposition Zrotation Xrotation Yrotation
                        End Site
                        {
                          OFFSET 0 2.03592 0
                        }
                      }
                    }
                  }
                  JOINT RightHandPinky1
                  {
                    OFFSET 0 9.70055 -5.26943
                    CHANNELS 6 Xposition Yposition Zposition Zrotation Xrotation Yrotation
                    JOINT RightHandPinky2
                    {
                      OFFSET 0 3.95207 0
                      CHANNELS 6 Xposition Yposition Zposition Zrotation Xrotation Yrotation
                      JOINT RightHandPinky3
                      {
                        OFFSET 0 2.15568 0
                        CHANNELS 6 Xposition Yposition Zposition Zrotation Xrotation Yrotation
                        End Site
                        {
                          OFFSET 0 1.91616 0
                        }
                      }
                    }
                  }
                }
              }
            }
          }
          JOINT LeftShoulder
          {
            OFFSET 0 7.98668 5.19711
            CHANNELS 6 Xposition Yposition Zposition Zrotation Xrotation Yrotation
            JOINT LeftArm
            {
              OFFSET 0 18.3158 0
              CHANNELS 6 Xposition Yposition Zposition Zrotation Xrotation Yrotation
              JOINT LeftForeArm
              {
                OFFSET 0 28.8742 0
                CHANNELS 6 Xposition Yposition Zposition Zrotation Xrotation Yrotation
                JOINT LeftHand
                {
                  OFFSET 0 23.8772 0
                  CHANNELS 6 Xposition Yposition Zposition Zrotation Xrotation Yrotation
                  JOINT LeftHandThumb1
                  {
                    OFFSET 2.41094 4.67063 3.47303
                    CHANNELS 6 Xposition Yposition Zposition Zrotation Xrotation Yrotation
                    JOINT LeftHandThumb2
                    {
                      OFFSET 0 3.95207 0
                      CHANNELS 6 Xposition Yposition Zposition Zrotation Xrotation Yrotation
                      JOINT LeftHandThumb3
                      {
                        OFFSET 0 2.15568 0
                        CHANNELS 6 Xposition Yposition Zposition Zrotation Xrotation Yrotation
                        End Site
                        {
                          OFFSET 0 1.6 0
                        }
                      }
                    }
                  }
                  JOINT LeftHandIndex1
                  {
                    OFFSET 0 12.455 2.51496
                    CHANNELS 6 Xposition Yposition Zposition Zrotation Xrotation Yrotation
                    JOINT LeftHandIndex2
                    {
                      OFFSET 0 4.79039 0
                      CHANNELS 6 Xposition Yposition Zposition Zrotation Xrotation Yrotation
                      JOINT LeftHandIndex3
                      {
                        OFFSET 0 2.63472 0
                        CHANNELS 6 Xposition Yposition Zposition Zrotation Xrotation Yrotation
                        End Site
                        {
                          OFFSET 0 1.91616 0
                        }
                      }
                    }
                  }
                  JOINT LeftHandMiddle1
                  {
                    OFFSET 0 12.455 -0.0798399
                    CHANNELS 6 Xposition Yposition Zposition Zrotation Xrotation Yrotation
                    JOINT LeftHandMiddle2
                    {
                      OFFSET 0 5.38919 0
                      CHANNELS 6 Xposition Yposition Zposition Zrotation Xrotation Yrotation
                      JOINT LeftHandMiddle3
                      {
                        OFFSET 0 3.11376 0
                        CHANNELS 6 Xposition Yposition Zposition Zrotation Xrotation Yrotation
                        End Site
                        {
                          OFFSET 0 2.03592 0
                        }
                      }
                    }
                  }
                  JOINT LeftHandRing1
                  {
                    OFFSET 0 11.0778 -2.67464
                    CHANNELS 6 Xposition Yposition Zposition Zrotation Xrotation Yrotation
                    JOINT LeftHandRing2
                    {
                      OFFSET 0 4.91015 0
                      CHANNELS 6 Xposition Yposition Zposition Zrotation Xrotation Yrotation
                      JOINT LeftHandRing3
                      {
                        OFFSET 0 3.11376 0
                        CHANNELS 6 Xposition Yposition Zposition Zrotation Xrotation Yrotation
                        End Site
                        {
                          OFFSET 0 2.03592 0
                        }
                      }
                    }
                  }
                  JOINT LeftHandPinky1
                  {
                    OFFSET 0 9.70055 -5.26943
                    CHANNELS 6 Xposition Yposition Zposition Zrotation Xrotation Yrotation
                    JOINT LeftHandPinky2
                    {
                      OFFSET 0 3.95207 0
                      CHANNELS 6 Xposition Yposition Zposition Zrotation Xrotation Yrotation
                      JOINT LeftHandPinky3
                      {
                        OFFSET 0 2.15568 0
                        CHANNELS 6 Xposition Yposition Zposition Zrotation Xrotation Yrotation
                        End Site
                        {
                          OFFSET 0 1.91616 0
                        }
                      }
                    }
                  }
                }
              }
            }
          }
        }
      }
    }
  }
  JOINT RightUpLeg
  {
    OFFSET -10.0656 0 0
    CHANNELS 6 Xposition Yposition Zposition Zrotation Xrotation Yrotation
    JOINT RightLeg
    {
      OFFSET 0 -42.9874 0
      CHANNELS 6 Xposition Yposition Zposition Zrotation Xrotation Yrotation
      JOINT RightFoot
      {
        OFFSET 0 -44.625 0
        CHANNELS 6 Xposition Yposition Zposition Zrotation Xrotation Yrotation
        JOINT RightForeFoot
        {
          OFFSET 0 -3.74821 0
          CHANNELS 6 Xposition Yposition Zposition Zrotation Xrotation Yrotation
          JOINT RightToeBase
          {
            OFFSET 0 0 14.6792
            CHANNELS 6 Xposition Yposition Zposition Zrotation Xrotation Yrotation
            End Site
            {
              OFFSET 0 0 10.3604
            }
          }
        }
      }
    }
  }
  JOINT LeftUpLeg
  {
    OFFSET 10.0656 0 0
    CHANNELS 6 Xposition Yposition Zposition Zrotation Xrotation Yrotation
    JOINT LeftLeg
    {
      OFFSET 0 -42.9874 0
      CHANNELS 6 Xposition Yposition Zposition Zrotation Xrotation Yrotation
      JOINT LeftFoot
      {
        OFFSET 0 -44.625 0
        CHANNELS 6 Xposition Yposition Zposition Zrotation Xrotation Yrotation
        JOINT LeftForeFoot
        {
          OFFSET 0 -3.74821 0
          CHANNELS 6 Xposition Yposition Zposition Zrotation Xrotation Yrotation
          JOINT LeftToeBase
          {
            OFFSET 0 0 14.6792
            CHANNELS 6 Xposition Yposition Zposition Zrotation Xrotation Yrotation
            End Site
            {
              OFFSET 0 0 10.6728
            }
          }
        }
      }
    }
  }
}
MOTION
Frames:	4
Frame Time:	0.00833333
-9.41463 92.8402 0.68856 -4.84537 2.9522 -174.729 -3.55271e-015 14.0932 -1.51142 -9.02411 8.76606 0.598927 1.41553e-015 8.6966 1.77636e-015 -2.70294 6.47827 1.3706 0 8.6966 3.55271e-015 -2.50822 3.07347 9.54237 8.88178e-016 8.6966 0 -0.304361 1.18702 1.02432 3.55271e-015 11.1813 1.11813 -2.74568 5.5424 9.84865 2.66454e-015 5.70631 7.10543e-015 -0.22747 -5.80358 5.97517 0 5.70631 7.10543e-015 -1.09454 -19.7268 0.477695 0 7.98668 5.19711 101.569 -9.01621 1.83901 2.84217e-014 18.3158 0 65.9164 25.0355 -40.4614 0 28.8742 0 0.00118184 50.4998 -18.8299 0 23.8772 0 11.7231 -3.0755 0.000230464 -2.41094 4.67063 3.47303 -2.1902 11.1879 0.425082 -7.10543e-015 3.95207 -7.10543e-015 -6.36111e-015 3.57812e-015 -0 0 2.15568 0 -6.36111e-015 6.36111e-015 1.59028e-015 0 12.455 2.51496 0.715432 -4.87022e-015 -1.59028e-015 -7.10543e-015 4.79039 0 3.18055e-015 -4.96962e-015 3.97569e-016 0 2.63472 -7.10543e-015 8.27607e-032 2.38542e-015 -1.98785e-015 0 12.455 -0.0798399 8.59534 -3.08116e-015 -9.93923e-016 -7.10543e-015 5.38919 7.10543e-015 -5.94843e-032 3.42904e-015 9.93923e-016 0 3.11376 0 -1.20693e-033 3.47873e-016 1.98785e-016 0 11.0778 -2.67464 15.8968 -1.3418e-015 3.97569e-016 -7.10543e-015 4.91015 0 1.59028e-015 -1.31695e-015 -5.96354e-016 0 3.11376 -7.10543e-015 -1.27589e-032 1.83876e-015 3.97569e-016 0 9.70055 -5.26943 36.3842 -7.45443e-016 9.93923e-016 -3.55271e-015 3.95207 0 -1.59028e-015 5.31749e-015 -2.38542e-015 3.55271e-015 2.15568 -3.55271e-015 -1.59028e-015 2.28602e-015 -1.78906e-015 0 7.98668 5.19711 -102.11 -17.4336 -3.67819 0 18.3158 -7.10543e-015 -62.1957 2.20539 13.0111 -7.10543e-015 28.8742 -7.10543e-015 -0.00125321 31.4046 16.3684 0 23.8772 0 -10.2806 -1.45466 -0.00093797 2.41094 4.67063 3.47303 -0.341743 13.8642 0.0592509 7.10543e-015 3.95207 -3.55271e-015 -5.46658e-016 -3.18055e-015 3.97569e-016 0 2.15568 -3.55271e-015 -9.44227e-016 -3.18055e-015 -1.98785e-016 7.10543e-015 12.455 2.51496 1.18195 0 -0 0 4.79039 -8.88178e-016 5.46658e-016 0 3.97569e-016 0 2.63472 0 -2.48481e-016 0 1.98785e-016 7.10543e-015 12.455 -0.0798399 -8.36554 7.95139e-016 1.19271e-015 0 5.38919 -1.77636e-015 -9.19379e-016 -1.59028e-015 -7.95139e-016 -3.55271e-015 3.11376 1.77636e-015 -8.44835e-016 -1.59028e-015 -0 7.10543e-015 11.0778 -2.67464 -15.1146 -7.95139e-016 3.18055e-015 0 4.91015 0 -1.09332e-015 -7.95139e-016 -3.97569e-016 0 3.11376 1.77636e-015 -1.19271e-015 0 -0 7.10543e-015 9.70055 -5.26943 -32.3531 -7.95139e-016 6.36111e-015 8.88178e-016 3.95207 8.88178e-016 1.3418e-015 7.95139e-016 1.59028e-015 1.77636e-015 2.15568 -8.88178e-016 1.2921e-015 -7.95139e-016 -7.95139e-016 -10.0656 1.42109e-014 -8.88178e-016 -13.48 12.7463 -18.4815 -7.10543e-015 -42.9874 -1.77636e-015 1.21266e-014 49.6024 -1.2269e-014 3.55271e-015 -44.625 -7.10543e-015 14.0128 10.1073 -0.431216 3.55271e-015 -3.74821 -7.10543e-015 3.18055e-015 0 1.59028e-015 0 3.55271e-015 14.6792 0 8.52474 -0 10.0656 1.42109e-014 0 -8.70048 0.0445619 24.7648 1.77636e-015 -42.9874 0 -1.76137e-015 12.1008 6.50566e-015 0 -44.625 -2.22045e-016 1.86907 -4.56482 -14.7604 -1.77636e-015 -3.74821 4.44089e-016 1.98785e-015 -7.95139e-016 1.59028e-015 0 0 14.6792 8.49684e-016 -1.96445 1.59121e-015 
-9.41406 92.8239 0.791733 -4.90805 2.91423 -174.86 0 14.0932 -1.51142 -9.02028 8.74739 0.59102 -1.83187e-015 8.6966 0 -2.70529 6.48661 1.3677 8.88178e-016 8.6966 -3.55271e-015 -2.5104 3.0909 9.43809 1.77636e-015 8.6966 7.10543e-015 -0.287084 1.2001 0.995855 1.77636e-015 11.1813 1.11813 -2.83474 5.50908 9.91078 -8.88178e-016 5.70631 7.10543e-015 -0.252718 -5.8719 6.1707 2.66454e-015 5.70631 7.10543e-015 -1.15183 -19.7695 0.495953 0 7.98668 5.19711 101.883 -9.1914 1.9251 2.84217e-014 18.3158 -7.10543e-015 66.1676 23.5573 -40.2248 0 28.8742 -7.10543e-015 -2.19419e-007 50.5942 -18.5247 0 23.8772 1.42109e-014 12.0177 -3.04567 4.37945e-015 -2.41094 4.67063 3.47303 -2.16271 11.2925 0.423691 7.10543e-015 3.95207 0 -6.36111e-015 5.96354e-016 -7.95139e-016 0 2.15568 0 1.24141e-031 -3.57812e-015 1.98785e-015 0 12.455 2.51496 1.01188 2.23633e-015 -4.96962e-016 7.10543e-015 4.79039 0 -1.90695e-031 7.85199e-015 1.39149e-015 0 2.63472 7.10543e-015 3.18055e-015 4.07509e-015 1.09332e-015 0 12.455 -0.0798399 8.98132 1.49089e-015 3.47873e-015 -7.10543e-015 5.38919 7.10543e-015 -1.28021e-032 -8.19987e-016 -8.94531e-016 7.10543e-015 3.11376 -7.10543e-015 1.59028e-015 -4.19933e-015 -2.98177e-016 0 11.0778 -2.67464 16.2784 -1.70209e-015 5.46658e-015 0 4.91015 -7.10543e-015 -1.59028e-015 -4.16205e-015 -4.96962e-016 0 3.11376 0 -1.59028e-015 -9.56651e-016 -9.93923e-017 0 9.70055 -5.26943 36.8464 1.04859e-014 1.44119e-014 7.10543e-015 3.95207 7.10543e-015 -1.59028e-015 3.52843e-015 -9.93923e-017 -3.55271e-015 2.15568 0 -1.59028e-015 3.47873e-016 5.96354e-016 0 7.98668 5.19711 -102.163 -17.5209 -3.71238 0 18.3158 0 -63.0633 1.75409 12.2068 -7.10543e-015 28.8742 0 -2.53305e-007 31.3269 16.8933 0 23.8772 0 -10.3294 -0.720069 -2.0874e-015 2.41094 4.67063 3.47303 -1.4799 13.0813 0.335021 0 3.95207 -7.10543e-015 9.93923e-017 0 -3.97569e-016 -7.10543e-015 2.15568 0 -9.93923e-017 -3.18055e-015 -1.98785e-016 7.10543e-015 12.455 2.51496 0.0536805 -1.59028e-015 -9.93923e-017 7.10543e-015 4.79039 0 -1.98785e-016 0 -2.98177e-016 0 2.63472 8.88178e-016 -6.08778e-016 0 -9.93923e-017 7.10543e-015 12.455 -0.0798399 -9.46259 0 1.59028e-015 0 5.38919 0 7.45443e-017 7.95139e-016 -3.97569e-016 -3.55271e-015 3.11376 0 -7.20594e-016 0 -3.97569e-016 7.10543e-015 11.0778 -2.67464 -15.7892 -2.38542e-015 2.78299e-015 0 4.91015 0 -4.96962e-016 0 3.97569e-016 -3.55271e-015 3.11376 -8.88178e-016 -4.47266e-016 -7.95139e-016 -3.97569e-016 7.10543e-015 9.70055 -5.26943 -32.3318 -3.18055e-015 6.36111e-015 0 3.95207 -1.77636e-015 3.18055e-015 1.59028e-015 7.95139e-016 -8.88178e-016 2.15568 -1.77636e-015 4.96962e-017 0 -7.95139e-016 -10.0656 0 -1.77636e-015 -13.5162 12.6488 -18.6746 0 -42.9874 0 -5.24448e-015 49.7827 7.38875e-015 -3.55271e-015 -44.625 0 14.3712 11.1014 -0.688531 3.55271e-015 -3.74821 0 -3.18055e-015 6.36111e-015 -1.59028e-015 3.55271e-015 3.55271e-015 14.6792 -2.41126e-016 8.6218 1.60845e-015 10.0656 0 -8.88178e-016 -8.79739 0.0345088 24.8701 -1.77636e-015 -42.9874 0 1.26862e-015 11.9349 -3.25083e-015 1.77636e-015 -44.625 8.88178e-016 1.76156 -4.50572 -14.7747 -3.55271e-015 -3.74821 -4.44089e-016 9.93923e-016 1.19271e-015 1.59028e-015 0 0 14.6792 1.98785e-016 -1.97894 -0 
-9.41018 92.8122 0.898547 -4.96654 2.88405 -175.058 0 14.0932 -1.51142 -9.0269 8.75752 0.579206 -7.21645e-016 8.6966 0 -2.70613 6.49659 1.36291 -2.66454e-015 8.6966 0 -2.50491 3.08332 9.26979 8.88178e-016 8.6966 7.10543e-015 -0.269176 1.18851 0.956277 0 11.1813 1.11813 -2.92589 5.49934 9.96216 -8.88178e-016 5.70631 -7.10543e-015 -0.268555 -5.92832 6.40982 0 5.70631 0 -1.20627 -19.8049 0.516105 8.88178e-016 7.98668 5.19711 102.124 -9.39332 2.00937 2.84217e-014 18.3158 -7.10543e-015 66.4343 22.1803 -39.7331 0 28.8742 0 -0.00115837 50.0983 -18.4666 0 23.8772 0 12.0542 -3.13015 -8.07196e-005 -2.41094 4.67063 3.47303 -2.23215 11.3013 0.437659 7.10543e-015 3.95207 0 -9.54166e-015 3.97569e-016 -3.77691e-015 7.10543e-015 2.15568 -7.10543e-015 -3.18055e-015 2.18663e-015 -7.95139e-016 0 12.455 2.51496 1.3845 7.95139e-016 -3.97569e-016 0 4.79039 0 -9.54166e-015 3.77691e-015 1.59028e-015 -7.10543e-015 2.63472 0 -6.36111e-015 3.97569e-016 -3.97569e-016 -7.10543e-015 12.455 -0.0798399 9.38866 -4.77083e-015 -5.1684e-015 -7.10543e-015 5.38919 7.10543e-015 1.59028e-015 -2.48481e-015 7.95139e-016 0 3.11376 0 3.1725e-032 -2.28602e-015 7.95139e-016 0 11.0778 -2.67464 16.5952 -8.44835e-016 -8.74653e-015 0 4.91015 -7.10543e-015 -7.95139e-016 7.7526e-015 1.19271e-015 7.10543e-015 3.11376 0 -1.59028e-015 4.62174e-015 -0 0 9.70055 -5.26943 37.0984 9.93923e-017 -2.18663e-014 0 3.95207 0 -3.18055e-015 5.36719e-015 -0 0 2.15568 -7.10543e-015 -3.18055e-015 1.88845e-015 -0 8.88178e-016 7.98668 5.19711 -102.208 -17.5682 -3.73638 0 18.3158 -7.10543e-015 -63.9013 1.37046 11.3145 7.10543e-015 28.8742 -7.10543e-015 0.00707914 31.1088 15.8285 0 23.8772 -1.77636e-015 -9.74542 -0.374312 0.00528642 2.41094 4.67063 3.47303 -1.34929 12.5546 0.295067 0 3.95207 -3.55271e-015 -4.96962e-017 3.18055e-015 -3.97569e-016 -7.10543e-015 2.15568 0 -1.49089e-016 3.18055e-015 -9.93923e-017 0 12.455 2.51496 -0.367716 -3.18055e-015 -0 0 4.79039 -8.88178e-016 9.93923e-017 -1.59028e-015 1.98785e-016 7.10543e-015 2.63472 8.88178e-016 4.96962e-016 -3.18055e-015 1.98785e-016 7.10543e-015 12.455 -0.0798399 -10.0357 -1.59028e-015 -1.19581e-015 7.10543e-015 5.38919 0 2.38231e-015 0 8.38623e-017 -7.10543e-015 3.11376 -1.77636e-015 2.38464e-015 0 7.14382e-017 0 11.0778 -2.67464 -16.2844 -3.18055e-015 -2.08724e-015 7.10543e-015 4.91015 1.77636e-015 7.57867e-016 -1.59028e-015 -4.96962e-016 -3.55271e-015 3.11376 -1.77636e-015 7.95139e-016 -1.59028e-015 1.98785e-016 0 9.70055 -5.26943 -32.709 0 -3.18055e-015 -1.77636e-015 3.95207 0 -2.68359e-015 0 7.95139e-016 8.88178e-015 2.15568 1.77636e-015 -2.6339e-015 -1.59028e-015 -0 -10.0656 0 8.88178e-016 -13.5543 12.4679 -18.8037 0 -42.9874 0 2.30506e-016 49.6608 4.91349e-015 0 -44.625 0 14.4661 11.383 -1.15556 3.55271e-015 -3.74821 0 0 3.18055e-015 -0 0 0 14.6792 0 8.48825 -0 10.0656 1.42109e-014 8.88178e-016 -8.87538 -0.0111599 25.0931 0 -42.9874 -1.77636e-015 -1.32261e-015 11.8135 -3.24938e-015 0 -44.625 -1.11022e-016 1.70115 -4.44545 -14.8219 -1.77636e-015 -3.74821 4.44089e-016 7.95139e-016 0 -3.18055e-015 -1.77636e-015 -8.88178e-016 14.6792 -3.09656e-016 -1.99648 -3.18249e-015 
-9.39907 92.7996 1.01773 -5.02514 2.85407 -175.255 0 14.0932 -1.51142 -9.03353 8.76765 0.567392 -1.4988e-015 8.6966 -1.77636e-015 -2.70696 6.50657 1.35813 0 8.6966 -3.55271e-015 -2.49945 3.07572 9.1015 1.77636e-015 8.6966 0 -0.251275 1.17691 0.916703 -8.88178e-016 11.1813 1.11813 -3.01702 5.48953 10.0135 1.77636e-015 5.70631 7.10543e-015 -0.284156 -5.98481 6.64895 -1.77636e-015 5.70631 -7.10543e-015 -1.26071 -19.8402 0.536226 -8.88178e-016 7.98668 5.19711 102.366 -9.5949 2.09455 0 18.3158 3.55271e-015 66.7113 20.8051 -39.239 0 28.8742 0 -0.00152869 49.6025 -18.4091 0 23.8772 0 12.0906 -3.21463 -0.000107635 -2.41094 4.67063 3.47303 -2.3016 11.31 0.451639 0 3.95207 -7.10543e-015 -1.17244e-032 -8.44835e-016 -7.95139e-016 0 2.15568 0 6.36111e-015 -1.01877e-014 -4.37326e-015 0 12.455 2.51496 1.75713 -1.19271e-015 2.38542e-015 1.42109e-014 4.79039 7.10543e-015 3.18055e-015 5.56597e-015 2.38542e-015 -7.10543e-015 2.63472 0 3.18055e-015 -1.19271e-015 2.38542e-015 0 12.455 -0.0798399 9.79602 -4.77083e-015 -7.95139e-016 0 5.38919 -7.10543e-015 1.59028e-015 -1.19271e-015 7.95139e-016 0 3.11376 0 3.18055e-015 -1.59028e-015 -7.95139e-016 0 11.0778 -2.67464 16.9119 -2.78299e-015 -3.18055e-015 -7.10543e-015 4.91015 7.10543e-015 0 3.18055e-015 -0 0 3.11376 0 -1.59028e-015 -2.98177e-016 1.59028e-015 0 9.70055 -5.26943 37.3504 -6.36111e-015 -4.77083e-015 3.55271e-015 3.95207 0 1.59028e-015 -4.77083e-015 -0 0 2.15568 7.10543e-015 -2.48282e-032 -1.78906e-015 -7.95139e-016 -8.88178e-016 7.98668 5.19711 -102.253 -17.6155 -3.76043 0 18.3158 7.10543e-015 -64.7452 0.999864 10.4165 7.10543e-015 28.8742 7.10543e-015 0.00941828 30.8906 14.7659 7.10543e-015 23.8772 0 -9.16147 -0.0284951 0.00704866 2.41094 4.67063 3.47303 -1.21931 12.0279 0.256418 0 3.95207 0 -1.98785e-016 0 -0 0 2.15568 3.55271e-015 0 0 -0 7.10543e-015 12.455 2.51496 -0.789124 -1.59028e-015 -3.97569e-016 -7.10543e-015 4.79039 -8.88178e-016 3.97569e-016 0 -3.97569e-016 0 2.63472 8.88178e-016 0 0 -3.97569e-016 0 12.455 -0.0798399 -10.6088 -1.59028e-015 -4.57205e-015 0 5.38919 -8.88178e-016 -2.33572e-015 0 5.96354e-016 0 3.11376 -8.88178e-016 -6.95746e-016 0 -0 0 11.0778 -2.67464 -16.7796 0 -6.85807e-015 -5.32907e-015 4.91015 0 1.71452e-015 1.59028e-015 7.95139e-016 -1.77636e-015 3.11376 -1.77636e-015 -1.54058e-015 -1.59028e-015 -0 0 9.70055 -5.26943 -33.0863 3.18055e-015 -1.45113e-014 5.32907e-015 3.95207 1.77636e-015 7.20594e-016 1.59028e-015 -0 -5.32907e-015 2.15568 0 -2.43511e-015 1.59028e-015 5.96354e-016 -10.0656 -1.42109e-014 0 -13.5928 12.2872 -18.9329 0 -42.9874 0 -6.814e-015 49.539 1.47037e-014 0 -44.625 0 14.5633 11.6638 -1.62354 -3.55271e-015 -3.74821 0 6.36111e-015 3.18055e-015 -1.59028e-015 0 0 14.6792 6.8282e-015 8.3547 -3.21467e-015 10.0656 0 0 -8.9532 -0.0571321 25.316 1.77636e-015 -42.9874 0 -7.33288e-016 11.6921 -3.24795e-015 1.77636e-015 -44.625 8.88178e-016 1.64081 -4.38513 -14.8691 -3.55271e-015 -3.74821 0 2.98177e-016 0 -0 1.77636e-015 0 14.6792 -4.34693e-017 -2.01401 1.59126e-015 
